<svg width="19" height="24" viewBox="0 0 19 24" fill="none" xmlns="http://www.w3.org/2000/svg">
<path d="M14.4659 4.25873C13.1324 2.73025 11.6316 1.3539 9.99119 0.155118C9.84598 0.0541576 9.67298 0 9.49568 0C9.31838 0 9.14538 0.0541576 9.00017 0.155118C7.36277 1.3544 5.86487 2.73074 4.53409 4.25873C1.56642 7.64126 0 11.207 0 14.5713C0 17.072 1.00089 19.4702 2.78249 21.2384C4.56408 23.0066 6.98044 24 9.5 24C12.0196 24 14.4359 23.0066 16.2175 21.2384C17.9991 19.4702 19 17.072 19 14.5713C19 11.207 17.4336 7.64126 14.4659 4.25873ZM17.2727 14.5713C17.2725 14.8578 17.256 15.1439 17.2231 15.4285H10.3636V13.7142H17.2339C17.2598 13.9999 17.2727 14.2856 17.2727 14.5713ZM15.4796 8.57127H10.3636V6.85697H14.3461C14.755 7.40756 15.1334 7.97984 15.4796 8.57127ZM10.3636 20.5714H14.3785C13.2282 21.4962 11.8348 22.074 10.3636 22.2364V20.5714ZM10.3636 18.8571V17.1428H16.8269C16.6119 17.7476 16.3218 18.3235 15.9632 18.8571H10.3636ZM10.3636 11.9999V10.2856H16.3432C16.5808 10.8422 16.7774 11.4151 16.9316 11.9999H10.3636ZM12.9427 5.14267H10.3636V2.6355C11.2772 3.41482 12.1387 4.25231 12.9427 5.14267ZM1.72727 14.5713C1.72727 9.21414 6.28943 4.63802 8.63636 2.6355V22.2364C6.73729 22.0238 4.98347 21.125 3.70926 19.7113C2.43504 18.2977 1.72954 16.4681 1.72727 14.5713Z" fill="white"/>
</svg>
