<svg width="30" height="30" viewBox="0 0 30 30" fill="none" xmlns="http://www.w3.org/2000/svg">
<path fill-rule="evenodd" clip-rule="evenodd" d="M13.5075 5.05571e-08C11.3496 0.000233693 9.22321 0.517369 7.30626 1.50812C5.3893 2.49886 3.73759 3.93439 2.48939 5.69453C1.24119 7.45467 0.432817 9.48819 0.131953 11.6249C-0.168912 13.7616 0.0464824 15.9392 0.760104 17.9756C1.47373 20.0119 2.66481 21.8477 4.23365 23.3293C5.80248 24.8108 7.70342 25.8949 9.77733 26.491C11.8512 27.087 14.0378 27.1776 16.1539 26.7552C18.27 26.3327 20.2541 25.4095 21.9401 24.0628L27.4562 29.5787C27.7393 29.8521 28.1185 30.0034 28.512 29.9999C28.9056 29.9965 29.2821 29.8387 29.5604 29.5604C29.8387 29.2821 29.9965 28.9057 29.9999 28.5121C30.0034 28.1186 29.8521 27.7394 29.5787 27.4564L24.0625 21.9405C25.6505 19.9531 26.6451 17.5576 26.9316 15.0299C27.2182 12.5022 26.7851 9.9449 25.6823 7.65244C24.5795 5.35999 22.8517 3.42552 20.6978 2.07171C18.5439 0.717904 16.0515 -0.000220001 13.5075 5.05571e-08ZM4.50153 13.5083C4.50153 12.3257 4.73447 11.1546 5.18706 10.062C5.63966 8.96943 6.30303 7.97667 7.13931 7.14043C7.97559 6.30418 8.9684 5.64084 10.0611 5.18827C11.1537 4.7357 12.3248 4.50277 13.5075 4.50277C14.6902 4.50277 15.8613 4.7357 16.9539 5.18827C18.0466 5.64084 19.0394 6.30418 19.8757 7.14043C20.712 7.97667 21.3753 8.96943 21.8279 10.062C22.2805 11.1546 22.5135 12.3257 22.5135 13.5083C22.5135 15.8967 21.5646 18.1873 19.8757 19.8762C18.1867 21.565 15.896 22.5138 13.5075 22.5138C11.119 22.5138 8.82826 21.565 7.13931 19.8762C5.45037 18.1873 4.50153 15.8967 4.50153 13.5083Z" fill="white"/>
</svg>
