<svg width="28" height="28" viewBox="0 0 28 28" fill="none" xmlns="http://www.w3.org/2000/svg">
<path d="M18 8H25V10H18V8ZM18 14H28V16H18V14ZM18 20H25V22H18V20ZM8.00001 18.184V5H6.00001V18.184C5.33279 18.4199 4.77045 18.8841 4.41237 19.4945C4.0543 20.1049 3.92354 20.8222 4.04321 21.5197C4.16288 22.2172 4.52528 22.85 5.06635 23.3061C5.60741 23.7622 6.29232 24.0124 7.00001 24.0124C7.70769 24.0124 8.3926 23.7622 8.93367 23.3061C9.47473 22.85 9.83713 22.2172 9.9568 21.5197C10.0765 20.8222 9.94571 20.1049 9.58764 19.4945C9.22956 18.8841 8.66722 18.4199 8.00001 18.184Z" fill="white"/>
<path d="M18 5V3H28V5H18Z" fill="white"/>
<path d="M10.974 2C10.3466 1.16071 9.47049 0.540577 8.47036 0.227786C7.47023 -0.0850043 6.39695 -0.0745356 5.40311 0.257704C4.40927 0.589944 3.54546 1.22704 2.93451 2.07842C2.32356 2.92979 1.99656 3.9521 2 5V16.11C1.03533 17.0946 0.382811 18.342 0.124256 19.6959C-0.134299 21.0499 0.0126226 22.45 0.546599 23.7207C1.08058 24.9915 1.97784 26.0763 3.12587 26.8392C4.27391 27.602 5.62162 28.009 7 28.009C8.37839 28.009 9.7261 27.602 10.8741 26.8392C12.0222 26.0763 12.9194 24.9915 13.4534 23.7207C13.9874 22.45 14.1343 21.0499 13.8758 19.6959C13.6172 18.342 12.9647 17.0946 12 16.11V5C12 4.66412 11.9662 4.3291 11.899 4L10.974 2ZM7 26C5.98774 26.0015 4.99895 25.6952 4.16472 25.1218C3.3305 24.5485 2.69024 23.7351 2.32885 22.7896C1.96747 21.844 1.90201 20.8109 2.14117 19.8273C2.38033 18.8437 2.91281 17.9561 3.668 17.282L4 16.983V5C4 4.20435 4.31607 3.44129 4.87868 2.87868C5.44129 2.31607 6.20435 2 7 2C7.79565 2 8.55871 2.31607 9.12132 2.87868C9.68393 3.44129 10 4.20435 10 5V16.983L10.332 17.282C11.0872 17.9561 11.6197 18.8437 11.8588 19.8273C12.098 20.8109 12.0325 21.844 11.6712 22.7896C11.3098 23.7351 10.6695 24.5485 9.83528 25.1218C9.00106 25.6952 8.01226 26.0015 7 26Z" fill="white"/>
</svg>
