<svg width="32" height="25" viewBox="0 0 32 25" fill="none" xmlns="http://www.w3.org/2000/svg">
<path d="M16 1.24005e-05C12.773 1.24005e-05 9.957 2.17116 9.203 5.13847C8.58592 5.36965 8.02231 5.71557 7.54443 6.15643C7.06654 6.59729 6.68377 7.12444 6.418 7.7077C2.922 7.45962 0 10.149 0 13.4615C0 16.6433 2.691 19.2308 6 19.2308V17.3077C3.793 17.3077 2 15.5837 2 13.4615C2 11.3394 3.793 9.61539 6 9.61539C6.277 9.61539 6.566 9.64905 6.883 9.71635L7.859 9.93078L8.079 8.98847C8.20255 8.46339 8.47656 7.98207 8.86998 7.59902C9.26339 7.21598 9.7605 6.94652 10.305 6.82116L10.965 6.67116L11.063 6.02501C11.418 3.68463 13.543 1.92309 16 1.92309C16.9256 1.92147 17.8333 2.16807 18.6212 2.63518C19.409 3.10228 20.0458 3.77139 20.46 4.56732L20.855 5.31828L21.684 5.04039C22.152 4.88655 22.582 4.8077 23 4.8077C25.207 4.8077 27 6.53174 27 8.65385C27 8.69232 26.992 8.72501 26.984 8.75962C26.977 8.82693 26.969 8.89424 26.964 8.9577L26.902 9.65001L27.566 9.92308C28.2886 10.2174 28.905 10.71 29.3379 11.3394C29.7709 11.9688 30.0012 12.7069 30 13.4615C30 15.5837 28.207 17.3077 26 17.3077H23.457C23.9817 17.8672 24.3864 18.5207 24.648 19.2308H26C29.309 19.2308 32 16.6462 32 13.4615C31.9999 12.4479 31.7222 11.4522 31.1948 10.5745C30.6675 9.69676 29.9092 8.96803 28.996 8.46155C28.9421 6.96633 28.2871 5.54953 27.1687 4.50934C26.0504 3.46915 24.556 2.88672 23 2.88463C22.61 2.88463 22.223 2.92597 21.828 3.00482C21.1911 2.07925 20.3253 1.32019 19.3081 0.795746C18.2909 0.2713 17.1542 -0.00212197 16 1.24005e-05ZM15.5 8.65385C14.363 8.65385 13.34 9.1827 12.703 9.99808L14.301 11.1519C14.4402 10.9727 14.6212 10.8273 14.8294 10.7274C15.0377 10.6276 15.2673 10.576 15.5 10.5769C16.34 10.5769 17 11.2115 17 12.0192C17 12.8269 16.34 13.4615 15.5 13.4615H9V15.3846H15.5C17.422 15.3846 19 13.8673 19 12.0192C19 10.1712 17.422 8.65385 15.5 8.65385ZM8 17.3077V19.2308H11C11.566 19.2308 12 19.6481 12 20.1923C12 20.7365 11.566 21.1538 11 21.1538C10.8246 21.1549 10.6522 21.1109 10.5005 21.0264C10.3487 20.9419 10.2232 20.8199 10.137 20.6731L8.407 21.6462C8.67313 22.0803 9.05209 22.4405 9.50668 22.6913C9.96127 22.9422 10.4759 23.075 11 23.0769C12.645 23.0769 14 21.774 14 20.1923C13.9957 19.8637 13.9321 19.5384 13.812 19.2308H19C20.117 19.2308 21 20.0798 21 21.1538C21 22.2279 20.117 23.0769 19 23.0769C18.5859 23.077 18.1819 22.9535 17.8439 22.7234C17.5059 22.4933 17.2505 22.1679 17.113 21.7923L15.227 22.4308C15.5024 23.1816 16.0132 23.8318 16.6889 24.2919C17.3646 24.752 18.172 24.9994 19 25C21.2 25 23 23.2692 23 21.1538C23 19.0385 21.2 17.3077 19 17.3077H8Z" fill="white"/>
</svg>
